<svg xmlns="http://www.w3.org/2000/svg" width="226" height="48" viewBox="0 0 226 48" fill="none">
  <path d="M18.3257 10.3077C16.6959 9.26091 14.7271 8.72559 12.4134 8.72559C9.9093 8.72559 7.72641 9.32633 5.87064 10.5219C4.01488 11.7174 2.56953 13.3531 1.54054 15.4289C0.517488 17.5048 0 19.878 0 22.5427C0 25.2074 0.505587 27.5152 1.51674 29.597C2.52789 31.6847 3.93755 33.3323 5.74572 34.5397C7.5539 35.7531 9.66543 36.3598 12.0744 36.3598C14.6736 36.3598 16.8506 35.7531 18.5933 34.5397C18.7836 34.4088 18.968 34.2661 19.1524 34.1233V35.6341H24.9695V0.725586H18.3257V10.3077ZM18.5695 26.7122C18.1829 27.9077 17.5465 28.8356 16.6662 29.5018C15.7859 30.162 14.6082 30.4951 13.139 30.4951C11.6699 30.4951 10.5517 30.1382 9.64758 29.4304C8.74349 28.7167 8.07139 27.765 7.63719 26.5575C7.20299 25.3561 6.98291 24.0178 6.98291 22.5486C6.98291 21.0795 7.20892 19.765 7.66097 18.5635C8.11301 17.362 8.81488 16.3984 9.75466 15.6787C10.7004 14.959 11.9078 14.6022 13.377 14.6022C14.7509 14.6022 15.8632 14.9352 16.7078 15.5955C17.5584 16.2557 18.171 17.1895 18.5636 18.3851C18.9502 19.5806 19.1465 20.9724 19.1465 22.5546C19.1465 24.1367 18.9502 25.5285 18.5636 26.7241" fill="#130026"/>
  <path d="M35.967 5.8171V0H29.3767L35.967 5.8171Z" fill="#130026"/>
  <path d="M35.967 9.45728H29.3767V35.6402H35.967V9.45728Z" fill="#130026"/>
  <path d="M58.0818 10.9025C57.9331 10.7836 57.7785 10.6587 57.6239 10.5457C55.9287 9.33228 53.835 8.72559 51.3428 8.72559C48.8506 8.72559 46.6558 9.32632 44.8001 10.5219C42.9443 11.7174 41.4989 13.3531 40.4699 15.4289C39.4469 17.5048 38.9294 19.878 38.9294 22.5427C38.9294 25.2074 39.435 27.5092 40.4462 29.597C41.4573 31.6847 42.867 33.3323 44.6751 34.5397C46.4833 35.7531 48.5949 36.3598 51.0038 36.3598C53.4127 36.3598 55.5599 35.8066 57.2551 34.7122V37.3293C57.2848 38.2988 57.0409 39.1137 56.5175 39.768C55.9941 40.4222 55.2922 40.9159 54.4179 41.249C53.5435 41.5821 52.6157 41.7486 51.6283 41.7486C50.7064 41.7486 49.8558 41.5464 49.0707 41.1419C48.2856 40.7375 47.6848 40.1486 47.2625 39.3754L41.154 42.3315C41.8142 43.4616 42.6766 44.4549 43.7354 45.2995C44.7941 46.1501 45.9956 46.8103 47.3339 47.2862C48.6722 47.762 50.0878 47.9999 51.5748 47.9999C53.4959 47.9999 55.2803 47.7442 56.9339 47.2386C58.5815 46.7271 59.9733 45.9598 61.1153 44.9248C62.2573 43.8899 63.0365 42.5754 63.4528 40.9754C63.5956 40.4103 63.6967 39.8393 63.7562 39.2683C63.8097 38.6973 63.8394 38.0847 63.8394 37.4363V9.46313H58.0699V10.9085L58.0818 10.9025ZM55.5956 29.5018C54.7153 30.162 53.5376 30.4951 52.0684 30.4951C50.5993 30.4951 49.4811 30.1382 48.577 29.4304C47.6729 28.7226 47.0008 27.765 46.5666 26.5575C46.1324 25.3561 45.9123 24.0178 45.9123 22.5486C45.9123 21.0795 46.1383 19.765 46.5904 18.5635C47.0424 17.362 47.7443 16.3984 48.6841 15.6787C49.6298 14.959 50.8372 14.6022 52.3064 14.6022C53.6804 14.6022 54.7926 14.9352 55.6372 15.5955C56.4878 16.2557 57.1064 17.1895 57.493 18.3851C57.8796 19.5806 58.0759 20.9724 58.0759 22.5546C58.0759 24.1367 57.8796 25.5285 57.493 26.7241C57.1064 27.9196 56.4699 28.8475 55.5896 29.5137" fill="#130026"/>
  <path d="M74.8548 9.45728H68.2585V35.6402H74.8548V9.45728Z" fill="#130026"/>
  <path d="M74.8548 5.8171V0H68.2585L74.8548 5.8171Z" fill="#130026"/>
  <path d="M86.846 2.18286H80.2498V9.4572H86.846V2.18286Z" fill="#130026"/>
  <path d="M86.8461 14.5487V24.1487C86.8461 25.1658 86.8579 26.0818 86.8817 26.8967C86.9055 27.7175 87.072 28.3658 87.3754 28.8536C87.9583 29.7695 88.8862 30.2751 90.165 30.3524C91.4438 30.4357 92.8535 30.3703 94.4059 30.1621V35.6402C92.5977 35.9792 90.8252 36.1279 89.0884 36.0863C87.3457 36.0446 85.7992 35.7413 84.4312 35.1643C83.0632 34.5933 82.0282 33.6654 81.3144 32.3926C80.672 31.1911 80.333 29.9777 80.2973 28.7405C80.2676 27.5034 80.2498 26.1056 80.2498 24.5353V14.3346H86.8461V9.45728H93.5494V14.5487H86.8461Z" fill="#130026"/>
  <path d="M118.263 13.478C117.341 11.7352 115.985 10.504 114.189 9.79026C112.392 9.0765 110.34 8.72559 108.032 8.72559C104.88 8.72559 102.394 9.40364 100.568 10.7598C98.7417 12.1159 97.4986 13.8765 96.8325 16.0475L102.798 17.939C103.221 16.7434 103.952 15.9107 105.005 15.4408C106.058 14.9709 107.069 14.739 108.038 14.739C109.781 14.739 111.03 15.1018 111.774 15.8274C112.357 16.3984 112.708 17.2252 112.832 18.3018C111.72 18.4683 110.661 18.623 109.662 18.7717C107.967 19.0215 106.444 19.2832 105.106 19.5568C103.762 19.8304 102.608 20.1456 101.638 20.5025C100.235 21.02 99.1165 21.6624 98.2838 22.4297C97.4511 23.1969 96.8503 24.0832 96.4756 25.0825C96.1068 26.0817 95.9165 27.194 95.9165 28.4014C95.9165 29.8587 96.2496 31.185 96.9217 32.3925C97.5938 33.594 98.5752 34.5575 99.8778 35.2772C101.18 35.9969 102.769 36.3538 104.642 36.3538C106.902 36.3538 108.776 35.9613 110.251 35.1761C111.417 34.5575 112.517 33.6297 113.558 32.4044V35.6222H119.328V19.6222C119.328 18.4267 119.28 17.3442 119.185 16.3746C119.09 15.4051 118.78 14.4356 118.263 13.4661M112.107 27.6698C111.928 28.0386 111.595 28.5025 111.102 29.0497C110.608 29.5969 109.948 30.0906 109.115 30.5189C108.282 30.9471 107.259 31.1613 106.046 31.1613C105.285 31.1613 104.63 31.0483 104.083 30.8222C103.536 30.5962 103.108 30.2691 102.81 29.8408C102.513 29.4126 102.364 28.901 102.364 28.3003C102.364 27.8661 102.459 27.4676 102.644 27.1107C102.828 26.7538 103.119 26.4267 103.518 26.1293C103.911 25.8319 104.434 25.5523 105.082 25.2906C105.647 25.0825 106.302 24.8862 107.045 24.7077C107.789 24.5293 108.764 24.333 109.977 24.1129C110.757 23.9702 111.69 23.8096 112.773 23.6252C112.761 24.0832 112.737 24.6007 112.702 25.1776C112.648 26.1234 112.446 26.9501 112.107 27.6639" fill="#130026"/>
  <path d="M129.85 0H123.253V35.6342H129.85V0Z" fill="#130026"/>
  <path d="M169.106 0.142822C167.768 0.142822 166.686 1.22534 166.686 2.56363V33.2134C166.686 34.5517 167.768 35.6342 169.106 35.6342H190.882C192.22 35.6342 193.303 34.5517 193.303 33.2134V2.56363C193.303 1.22534 192.22 0.142822 190.882 0.142822H169.106ZM184.434 17.8915V26.7658H175.56V9.01716H184.434V17.8915Z" fill="#8F00FF"/>
  <path d="M200.838 0.0715332C199.5 0.0715332 198.418 1.15406 198.418 2.49235V33.1422C198.418 34.4804 199.5 35.563 200.838 35.563H222.614C223.952 35.563 225.035 34.4804 225.035 33.1422V2.49235C225.035 1.15406 223.952 0.0715332 222.614 0.0715332H200.838ZM216.166 17.8202V26.6946H207.292V8.94589H216.166V17.8202Z" fill="#8F00FF"/>
  <path d="M152.696 9.01716V17.8915H143.821V0.142822H134.947V17.8915C134.947 22.7926 138.92 26.7658 143.821 26.7658H152.696V35.6402H161.57V0.142822H152.696V9.01716Z" fill="#8F00FF"/>
</svg>